<?xml version="1.0" standalone="no"?><!DOCTYPE svg PUBLIC "-//W3C//DTD SVG 1.1//EN" "http://www.w3.org/Graphics/SVG/1.1/DTD/svg11.dtd"><svg t="1615806362252" class="icon" viewBox="0 0 1024 1024" version="1.1" xmlns="http://www.w3.org/2000/svg" p-id="1139" xmlns:xlink="http://www.w3.org/1999/xlink" width="200" height="200"><defs><style type="text/css"></style></defs><path d="M504 566.9m-366 0a366 366 0 1 0 732 0 366 366 0 1 0-732 0Z" fill="#FF3E3E" p-id="1140"></path><path d="M648.1 82l50.4 136.6c1.6 4.2 5.5 7.1 10 7.2l145.5 5.7c10.3 0.4 14.5 13.4 6.4 19.8L746 341.4c-3.5 2.8-5 7.4-3.8 11.7l39.5 140.1c2.8 9.9-8.3 17.9-16.8 12.2l-121-80.9c-3.7-2.5-8.6-2.5-12.3 0l-121 80.9c-8.6 5.7-19.6-2.3-16.8-12.2l39.5-140.1c1.2-4.3-0.3-8.9-3.8-11.7l-114.3-90.1c-8.1-6.4-3.9-19.4 6.4-19.8l145.5-5.7c4.5-0.2 8.4-3 10-7.2L627.3 82c3.5-9.7 17.2-9.7 20.8 0z" fill="#8ADA33" p-id="1141"></path></svg>